<svg width="18" height="16" viewBox="0 0 18 16" fill="none" xmlns="http://www.w3.org/2000/svg">
<path d="M12.7704 0.5C14.0321 0.514209 15.2328 1.04828 16.0932 1.97787C16.9535 2.90746 17.3982 4.15142 17.3249 5.38248L17.3238 10.58C17.3982 11.8486 16.9535 13.0925 16.0932 14.0221C15.2328 14.9517 14.0321 15.4858 12.7634 15.5H5.21284C2.57156 15.5 0.666016 13.3654 0.666016 10.6175V5.38248C0.666016 2.63459 2.57156 0.5 5.21284 0.5H12.7704ZM12.7563 1.77365H5.21284C3.30167 1.77365 1.93055 3.30963 1.93055 5.38248V10.6175C1.93055 12.6904 3.30167 14.2263 5.21284 14.2263H12.7563C13.6721 14.2161 14.5437 13.8284 15.1682 13.1536C15.7926 12.4789 16.1155 11.5759 16.0603 10.6175L16.0614 5.34491C16.1155 4.42406 15.7926 3.52111 15.1682 2.84635C14.5437 2.1716 13.6721 1.78393 12.7563 1.77365ZM14.0194 5.19864C14.2178 5.44827 14.1993 5.80218 13.9895 6.02959L13.9209 6.09379L10.4984 8.85302C9.66714 9.50561 8.51859 9.53824 7.65188 8.94795L7.51746 8.84957L4.07207 6.09545C3.79855 5.8768 3.75278 5.47622 3.96986 5.20071C4.16719 4.95026 4.51382 4.88939 4.78071 5.04467L4.85816 5.09776L8.29919 7.84843C8.685 8.15132 9.2139 8.17462 9.61668 7.92235L9.71459 7.85354L13.1307 5.09942C13.4033 4.87963 13.8012 4.92405 14.0194 5.19864Z" fill="#9CA3AF"/>
</svg>
